<svg width="175" height="81" viewBox="0 0 175 81" fill="none" xmlns="http://www.w3.org/2000/svg">
<rect width="175" height="81" fill="#E5E5E5"/>
<g clip-path="url(#clip0)">
<path d="M3.42 28.62H3.6C4.78954 25.1291 7.06476 22.1103 10.0929 20.0052C13.1211 17.9 16.7434 16.8189 20.43 16.92C34.65 16.92 41.22 28.17 41.22 41.22C41.22 55.22 34.56 65.34 20.43 65.34C12.78 65.34 6.3 62.1 3.6 54.63H3.42V80.82H0V18H3.42V28.62ZM37.8 41.22C37.8 30.69 32.85 19.89 20.43 19.89C8.01 19.89 3.51 30.24 3.51 41.22C3.51 52.2 7.38 62.37 20.43 62.37C32.49 62.37 37.8 52.65 37.8 41.22Z" fill="#1D4587"/>
<path d="M51.3 0V27.9H51.48C53.82 20.97 60.84 16.9 68.04 16.9C84.33 16.9 84.51 29.9 84.51 35.62V64.26H81.09V35C81.09 30.23 80.55 19.88 67.95 19.88C57.6 19.88 51.3 27.88 51.3 39.23V64.23H47.88V0H51.3Z" fill="#1D4587"/>
<path d="M103.43 60.3H103.61L116.21 18H120.8L133.49 60.3H133.67L146.67 18H150.45L135.56 64.26H131.33L118.64 22.32H118.46L105.68 64.26H101.36L86.69 18H90.38L103.43 60.3Z" fill="#1D4587"/>
<path d="M174.17 21H164.09V53.28C164.09 60.75 167.6 61.47 174.09 61.28V64.28C167.09 64.73 160.32 63.74 160.68 53.28V21H152.13V18H160.68V3.6H164.1V18H174.18L174.17 21Z" fill="#1D4587"/>
</g>
<defs>
<clipPath id="clip0">
<rect width="174.17" height="80.82" fill="white"/>
</clipPath>
</defs>
</svg>
